<svg width="939" height="804" viewBox="0 0 939 804" fill="none" xmlns="http://www.w3.org/2000/svg">
<ellipse cx="702.749" cy="258.42" rx="37.0891" ry="59.4734" transform="rotate(36.0505 702.749 258.42)" fill="#FACFDF"/>
<ellipse cx="534.965" cy="273.097" rx="36.3658" ry="51.7525" transform="rotate(4.22469 534.965 273.097)" fill="#FACFDF"/>
<ellipse cx="623.137" cy="223.23" rx="36.3658" ry="58.9509" transform="rotate(9.68767 623.137 223.23)" fill="#FACFDF"/>
<ellipse cx="725.95" cy="352.578" rx="36.3658" ry="51.6054" transform="rotate(49.6483 725.95 352.578)" fill="#FACFDF"/>
<path d="M661.86 465.815C633.938 482.393 608.77 460.244 567.997 429.035C518.667 414.941 491.485 410.411 509.103 366.618C565.48 313.764 621.01 299.211 651.792 335.442C684.008 389.303 675.491 457.722 661.86 465.815Z" fill="#FACFDF"/>
<ellipse cx="317.911" cy="324.498" rx="37.0891" ry="59.4734" transform="rotate(-23.7485 317.911 324.498)" fill="#FACFDF"/>
<ellipse cx="246.194" cy="476.891" rx="36.3658" ry="51.7525" transform="rotate(-55.5743 246.194 476.891)" fill="#FACFDF"/>
<ellipse cx="247.449" cy="375.602" rx="36.3658" ry="58.9509" transform="rotate(-50.1113 247.449 375.602)" fill="#FACFDF"/>
<ellipse cx="410.959" cy="351.811" rx="36.3658" ry="51.6054" transform="rotate(-10.1506 410.959 351.811)" fill="#FACFDF"/>
<path d="M476.586 464.164C476.868 496.635 445.065 507.245 397.582 526.785C360.586 562.329 342.997 583.543 314.011 546.287C296.691 470.974 312.047 415.661 358.846 407.283C421.601 406.533 476.449 448.312 476.586 464.164Z" fill="#FACFDF"/>
<ellipse cx="403.216" cy="280.87" rx="5" ry="15" transform="rotate(-1.86197 403.216 280.87)" fill="#D5E9E1"/>
<ellipse cx="184.724" cy="430.816" rx="5" ry="15" transform="rotate(-54.4649 184.724 430.816)" fill="#D5E9E1"/>
<ellipse cx="291.467" cy="249.435" rx="5" ry="15" transform="rotate(-20.8276 291.467 249.435)" fill="#D5E9E1"/>
<ellipse cx="188.53" cy="322.909" rx="5" ry="15" transform="rotate(-48.5384 188.53 322.909)" fill="#D5E9E1"/>
<path d="M842.166 275.157C867.303 349.274 848.876 430.711 798.081 502.624C747.288 574.533 664.281 636.636 561.018 671.658C457.755 706.68 354.094 707.885 270.037 681.711C185.974 655.535 121.809 602.109 96.672 527.991C71.5351 453.874 89.9614 372.437 140.757 300.524C191.549 228.615 274.556 166.512 377.82 131.49C481.083 96.4683 584.744 95.2632 668.801 121.437C752.863 147.613 817.029 201.039 842.166 275.157Z" stroke="#FACFDF" stroke-width="8"/>
<path d="M440.732 629.917L415.187 558.725L440.076 549.794C445.036 548.015 449.434 547.404 453.27 547.964C457.099 548.499 460.316 549.921 462.923 552.23C465.522 554.515 467.445 557.395 468.692 560.871C469.79 563.931 470.152 566.652 469.778 569.036C469.427 571.411 468.578 573.494 467.233 575.285C465.911 577.067 464.33 578.603 462.49 579.891L462.739 580.586C464.968 579.943 467.432 579.922 470.132 580.523C472.833 581.123 475.39 582.455 477.805 584.518C480.219 586.582 482.1 589.491 483.447 593.245C484.728 596.814 485.068 600.315 484.469 603.747C483.87 607.18 482.12 610.358 479.219 613.282C476.318 616.206 472.064 618.675 466.456 620.687L440.732 629.917ZM446.609 619.176L463.711 613.039C469.343 611.019 472.95 608.495 474.532 605.469C476.129 602.41 476.366 599.317 475.244 596.189C474.379 593.778 472.966 591.774 471.006 590.175C469.038 588.554 466.698 587.536 463.986 587.123C461.266 586.686 458.353 587.025 455.248 588.139L437.728 594.426L446.609 619.176ZM435.034 586.917L451.024 581.18C453.62 580.248 455.777 578.899 457.497 577.13C459.24 575.354 460.393 573.319 460.956 571.024C461.542 568.721 461.386 566.318 460.488 563.815C459.366 560.687 457.325 558.424 454.365 557.027C451.396 555.607 447.548 555.745 442.821 557.442L426.552 563.279L435.034 586.917ZM515.754 625.599C514.363 626.098 513.082 626.427 511.91 626.586C510.746 626.768 509.918 626.83 509.426 626.771L508.917 618.792C511.093 618.587 512.921 618.14 514.4 617.452C515.88 616.764 516.99 615.594 517.732 613.942C518.504 612.304 518.902 609.951 518.926 606.882L518.959 602.162L479.956 555.574L488.855 552.381L518.861 589.641L519.417 589.442L518.889 541.605L527.788 538.411L527.076 607.725C527.046 610.848 526.602 613.584 525.744 615.932C524.894 618.304 523.631 620.287 521.954 621.883C520.3 623.47 518.234 624.709 515.754 625.599ZM578.649 581.686C573.504 583.532 568.659 583.989 564.112 583.057C559.581 582.093 555.572 579.922 552.084 576.543C548.611 573.133 545.893 568.694 543.93 563.224C541.968 557.755 541.235 552.577 541.731 547.691C542.242 542.773 543.874 538.499 546.626 534.87C549.393 531.209 553.187 528.513 558.007 526.784C560.788 525.786 563.701 525.264 566.745 525.218C569.789 525.172 572.797 525.793 575.77 527.08C578.735 528.345 581.489 530.443 584.033 533.376C586.576 536.308 588.741 540.266 590.529 545.248L591.777 548.725L550.619 563.493L548.074 556.401L580.889 544.627C579.808 541.614 578.241 539.142 576.188 537.211C574.158 535.271 571.797 534.012 569.104 533.435C566.435 532.849 563.618 533.089 560.651 534.153C557.384 535.326 554.848 537.151 553.043 539.63C551.253 542.077 550.182 544.816 549.83 547.845C549.479 550.875 549.831 553.861 550.887 556.805L552.583 561.532C554.03 565.565 555.952 568.733 558.348 571.039C560.76 573.312 563.479 574.73 566.506 575.292C569.524 575.831 572.69 575.506 576.004 574.316C578.16 573.543 579.998 572.543 581.52 571.317C583.057 570.06 584.242 568.588 585.076 566.902C585.902 565.194 586.329 563.287 586.359 561.184L595.083 560.565C595.214 563.553 594.66 566.419 593.422 569.166C592.175 571.889 590.307 574.338 587.818 576.512C585.32 578.664 582.264 580.389 578.649 581.686ZM598.138 493.079L615.803 544.498L607.739 547.392L588.683 496.472L598.138 493.079ZM619.155 566.524C617.44 567.139 615.748 567.053 614.079 566.266C612.41 565.478 611.268 564.227 610.653 562.512C610.038 560.797 610.124 559.105 610.911 557.436C611.699 555.767 612.95 554.625 614.665 554.01C616.38 553.394 618.072 553.48 619.741 554.268C621.41 555.055 622.552 556.307 623.167 558.022C623.575 559.157 623.659 560.304 623.421 561.462C623.205 562.612 622.727 563.647 621.984 564.567C621.257 565.456 620.314 566.108 619.155 566.524Z" fill="#FACFDF"/>
</svg>
