<svg width="374" height="461" viewBox="0 0 374 461" fill="none" xmlns="http://www.w3.org/2000/svg">
<path fill-rule="evenodd" clip-rule="evenodd" d="M152.201 83.5864C153.307 78.2388 153.884 72.8265 153.884 67.4597C153.884 27.7318 137.494 -6.29517 78.7629 0.989258C35.2633 0.989258 0 37.7479 0 77.4758C0 110.731 8.93204 138.715 50.5613 146.951C50.0896 147.763 49.6257 148.582 49.1699 149.409C3.72929 231.876 23.7404 278.43 61.1525 303.597C54.6836 310.366 49.4866 318.654 46.0492 328.789C26.1254 387.53 32.2473 416.618 51.6636 430.56C50.6861 431.688 49.7676 432.91 48.9234 434.219C41.5661 445.631 43.3272 448.862 51.9917 454.448C60.6562 460.034 66.8525 460.393 74.2098 448.981C76.1099 446.034 77.8549 443.294 79.2489 440.753C97.5486 443.678 119.494 442.447 141.433 441.216C153.369 440.546 165.304 439.876 176.648 439.876C191.372 439.876 203.873 439.699 214.457 439.154C217.153 444.904 224.587 449.619 230.287 453.234L230.291 453.237C230.951 453.655 231.588 454.059 232.191 454.448C232.491 454.641 232.789 454.835 233.088 455.028C241.415 460.417 249.218 465.466 256.321 454.448C263.239 443.717 259.977 437.976 252.359 432.684C273.133 423.53 270.707 403.22 265.435 359.081C265.283 357.805 265.128 356.51 264.971 355.195C264.971 343.94 261.433 331.975 255.025 320.769C300.218 300.329 295.368 256.852 291.962 226.314L291.962 226.314C291.176 219.268 290.466 212.911 290.466 207.685C290.466 206.469 290.404 205.203 290.282 203.893C291.692 203.992 293.119 204.043 294.564 204.043C360.579 221.343 373.327 158.179 373.327 118.451C364.221 86.5813 338.064 46.5169 294.564 46.5169C256.612 46.5169 230.474 71.0325 224.425 103.67C205.719 89.3349 185.053 80.4848 165.265 82.9391C160.946 82.9391 156.582 83.1546 152.201 83.5864Z" fill="#FACFDF"/>
</svg>
