<svg width="489" height="461" viewBox="0 0 489 461" fill="none" xmlns="http://www.w3.org/2000/svg">
<ellipse cx="217.911" cy="147.498" rx="37.0891" ry="59.4734" transform="rotate(-23.7485 217.911 147.498)" fill="#FACFDF"/>
<ellipse cx="146.194" cy="299.891" rx="36.3658" ry="51.7525" transform="rotate(-55.5743 146.194 299.891)" fill="#FACFDF"/>
<ellipse cx="147.449" cy="198.602" rx="36.3658" ry="58.9509" transform="rotate(-50.1113 147.449 198.602)" fill="#FACFDF"/>
<ellipse cx="310.959" cy="174.811" rx="36.3658" ry="51.6054" transform="rotate(-10.1506 310.959 174.811)" fill="#FACFDF"/>
<path d="M376.586 287.164C376.868 319.635 345.065 330.245 297.582 349.785C260.586 385.329 242.997 406.543 214.011 369.287C196.691 293.974 212.047 238.661 258.846 230.283C321.601 229.533 376.449 271.312 376.586 287.164Z" fill="#FACFDF"/>
<ellipse cx="303.216" cy="103.87" rx="5" ry="15" transform="rotate(-1.86197 303.216 103.87)" fill="#D5E9E1"/>
<ellipse cx="84.7238" cy="253.816" rx="5" ry="15" transform="rotate(-54.4649 84.7238 253.816)" fill="#D5E9E1"/>
<ellipse cx="191.467" cy="72.4348" rx="5" ry="15" transform="rotate(-20.8276 191.467 72.4348)" fill="#D5E9E1"/>
<ellipse cx="88.5302" cy="145.909" rx="5" ry="15" transform="rotate(-48.5384 88.5302 145.909)" fill="#D5E9E1"/>
</svg>
