<svg width="1453" height="1323" viewBox="0 0 1453 1323" fill="none" xmlns="http://www.w3.org/2000/svg">
<path d="M1295.47 99.0725L1345.43 150.93L1372.07 184.638L1395.38 223.531L1417.03 275.389L1433.68 323.789L1447 398.119L1388.72 349.718L1335.44 311.689L1287.15 237.36L1258.84 202.788L1210.55 164.759L1160.6 130.187L1100.65 109.444L1052.36 105.987L1009.07 109.444L967.443 121.544L927.48 140.559L879.192 171.673L817.582 220.074L774.289 271.931L721.005 353.175L689.367 284.032L667.721 246.003L636.083 207.974L582.799 157.845L541.171 126.73L492.882 102.53L446.259 90.4295L414.621 85.2437H363.002L326.37 90.4295L286.406 102.53L239.783 126.73L181.503 182.045L153.196 216.617L134.88 251.188L121.559 280.574L108.238 316.875L88.2564 392.933L79.9307 460.348L73.2702 522.577L79.9307 577.892L93.2517 626.292L108.238 664.321L144.871 721.365L178.173 761.123L233.122 816.437L283.076 856.195L323.039 885.581L379.654 925.339L427.942 961.639L497.878 1015.23L562.818 1080.91L631.088 1160.43L682.707 1229.57L702.688 1208.83L727.665 1186.36L762.633 1160.43L797.6 1177.71L777.619 1203.64L739.321 1253.77L687.702 1316L659.395 1271.06L616.102 1208.83L562.818 1139.68L492.882 1065.35L432.938 1015.23L367.998 966.825L314.714 932.253L271.42 899.41L208.145 851.009L158.192 811.252L118.229 768.037L73.2702 709.265L56.6189 685.065L31.642 641.85L20.8187 607.278L9.99538 572.706L5 513.934L13.3256 392.933L26.6467 308.232L44.9631 251.188L64.9446 199.331L94.9169 150.93L128.219 112.901L176.508 69.6864L224.797 38.5718L268.09 23.0145L308.053 10.9144L349.681 4H399.635L451.254 17.8287L509.533 45.4862L566.148 85.2437L609.441 126.73L649.404 171.673L684.372 213.159L727.665 268.474L770.958 213.159L810.922 164.759L870.866 105.987L920.82 73.1436L967.443 52.4005L1009.07 40.3004L1064.02 35.1146L1108.98 31.6574L1155.6 35.1146L1183.91 40.3004L1218.88 52.4005L1258.84 73.1436L1295.47 99.0725Z" fill="#FACFDF" stroke="#FACFDF" stroke-width="8"/>
<path fill-rule="evenodd" clip-rule="evenodd" d="M1001.6 464.354C1003.6 454.671 1004.64 444.87 1004.64 435.152C1004.64 363.215 974.966 301.601 868.619 314.791C789.853 314.791 726 381.352 726 453.289C726 513.505 742.174 564.177 817.554 579.091C816.699 580.561 815.86 582.045 815.034 583.542C732.753 732.868 768.988 817.167 836.731 862.737C825.018 874.994 815.608 890.001 809.383 908.352C773.306 1014.72 784.392 1067.39 819.55 1092.63C817.78 1094.68 816.117 1096.89 814.588 1099.26C801.266 1119.92 804.455 1125.78 820.144 1135.89C835.833 1146.01 847.053 1146.65 860.375 1125.99C863.816 1120.65 866.976 1115.69 869.5 1111.09C902.636 1116.39 942.374 1114.16 982.099 1111.93C1003.71 1110.72 1025.32 1109.5 1045.86 1109.5C1072.53 1109.5 1095.16 1109.18 1114.33 1108.2C1119.21 1118.61 1132.67 1127.15 1142.99 1133.69C1144.19 1134.45 1145.34 1135.18 1146.44 1135.89C1146.98 1136.24 1147.52 1136.59 1148.06 1136.94L1148.06 1136.94C1163.14 1146.7 1177.27 1155.84 1190.13 1135.89C1202.66 1116.46 1196.75 1106.06 1182.96 1096.48C1220.57 1079.9 1216.18 1043.13 1206.63 963.203L1206.63 963.192C1206.36 960.886 1206.08 958.545 1205.8 956.167C1205.8 935.788 1199.39 914.121 1187.79 893.831C1269.62 856.819 1260.84 778.094 1254.67 722.797V722.796L1254.67 722.795C1253.24 710.038 1251.96 698.528 1251.96 689.064C1251.96 686.862 1251.85 684.571 1251.63 682.198C1254.18 682.378 1256.76 682.469 1259.38 682.469C1378.92 713.796 1402 599.421 1402 527.484C1385.51 469.777 1338.15 397.23 1259.38 397.23C1190.66 397.23 1143.33 441.622 1132.38 500.72C1098.5 474.763 1061.08 458.738 1025.25 463.182C1017.43 463.182 1009.53 463.572 1001.6 464.354Z" fill="#FACFDF"/>
</svg>
